#!OML:ASF H:\GeneralSubjects\Female5\Project 1\Capture day 1\Session 1\Female5.ASF
:FULLY-SPECIFIED
:DEGREES
267
root 41.111 16.04 1.4597 -344.058 -63.4335 -360.342
lowerback 25.1261 9.56528 15.1593
upperback -16.7102 18.1536 -11.4921
thorax -31.8841 -2.26858 -39.8376
lowerneck -7.07736 -10.7058 -2.92941
upperneck 35.8692 -21.9462 13.7915
head 16.2102 -8.67295 2.62578
rclavicle 9.93923e-014 -3.81667e-014
rhumerus -77.6051 -17.5456 -84.6577
rradius 59.0978
rwrist -8.03481
rhand -32.0722 -16.1918
rfingers 7.12502
rthumb -5.31841 -46.1051
lclavicle 9.93923e-014 -3.81667e-014
lhumerus -81.6466 -52.5413 92.9328
lradius 71.847
lwrist -5.03458
lhand -30.0696 33.1416
lfingers 7.12502
lthumb -3.38465 63.0944
rfemur -2.90946 17.0648 28.372
rtibia 2.23379
rfoot -30.9117 -22.5812
rtoes 5.00728
lfemur -14.7324 15.1154 -31.7811
ltibia 14.0168
lfoot -58.0525 10.8156
ltoes -40.7922
268
root 41.0949 16.0361 1.40404 -343.636 -66.3624 -360.495
lowerback 25.2923 9.67504 14.8625
upperback -16.802 18.2171 -11.4298
thorax -32.4738 -2.48143 -39.8646
lowerneck -7.00455 -10.2551 -2.8788
upperneck 36.0669 -21.3332 13.7535
head 16.1941 -8.42923 2.72704
rclavicle -6.36111e-014 1.62208e-013
rhumerus -78.7477 -17.6482 -84.0451
rradius 58.1778
rwrist -8.18182
rhand -32.7356 -17.6148
rfingers 7.12502
rthumb -5.95897 -47.511
lclavicle -6.36111e-014 1.62208e-013
lhumerus -81.7377 -52.6683 93.7665
lradius 70.9315
lwrist -6.0867
lhand -30.4498 33.9195
lfingers 7.12502
lthumb -3.75179 63.8663
rfemur -3.68111 17.5063 28.0222
rtibia 2.24732
rfoot -28.7913 -21.9588
rtoes -0.000122223
lfemur -14.7161 15.7569 -31.5434
ltibia 13.9628
lfoot -58.456 12.6032
ltoes -43.2057
269
root 41.0669 16.033 1.34751 -342.535 -69.0335 -361.44
lowerback 25.4048 9.69245 14.8057
upperback -16.9263 18.2803 -11.2771
thorax -33.0302 -2.71493 -39.872
lowerneck -6.92992 -9.85379 -2.77693
upperneck 36.3051 -20.7887 13.6305
head 16.187 -8.21702 2.76977
rclavicle -3.73715e-014 0
rhumerus -79.8831 -17.6241 -83.5937
rradius 57.2749
rwrist -8.31162
rhand -32.5782 -18.6611
rfingers 7.12502
rthumb -5.807 -48.5616
lclavicle -3.73715e-014 0
lhumerus -81.6519 -52.4971 94.3705
lradius 69.9538
lwrist -7.02355
lhand -31.4346 36.7584
lfingers 7.12502
lthumb -4.70277 66.6862
rfemur -4.50176 17.4511 28.048
rtibia 2.48476
rfoot -26.5305 -19.8785
rtoes -0.41084
lfemur -14.4334 15.8536 -30.8237
ltibia 13.7606
lfoot -56.9525 22.4206
ltoes -52.0695
270
root 41.0233 16.0285 1.27452 -340.662 -71.7461 -363.223
lowerback 25.5066 9.76998 14.5439
upperback -17.0991 18.3459 -11.0671
thorax -33.7671 -2.92225 -39.5952
lowerneck -6.85012 -9.45262 -2.62026
upperneck 36.639 -20.254 13.4333
head 16.2127 -8.00711 2.77107
rclavicle -2.78299e-014 -5.40694e-014
rhumerus -81.0189 -17.5417 -83.1298
rradius 56.255
rwrist -8.49653
rhand -32.2664 -20.0494
rfingers 7.12502
rthumb -5.50595 -49.9579
lclavicle -2.78299e-014 -5.40694e-014
lhumerus -80.8353 -51.951 93.9912
lradius 69.0736
lwrist -6.48645
lhand -31.4528 35.122
lfingers 7.12502
lthumb -4.72037 65.0494
rfemur -5.19519 17.8519 28.5029
rtibia 2.82785
rfoot -24.0484 -18.6007
rtoes -1.21005
lfemur -13.9396 15.6328 -29.6797
ltibia 13.6864
lfoot -54.8502 28.1759
ltoes -56.5084
271
root 40.9759 16.02 1.22471 -338.746 -74.0394 -365.075
lowerback 25.4685 9.6965 14.5536
upperback -17.2411 18.2843 -10.864
thorax -34.2963 -3.15791 -39.391
lowerneck -6.69896 -9.0109 -2.48017
upperneck 36.983 -19.6709 13.275
head 16.2323 -7.7804 2.80355
rclavicle 7.87187e-014 -7.95139e-014
rhumerus -82.1657 -17.4042 -82.252
rradius 55.0931
rwrist -9.88063
rhand -31.3818 -18.9599
rfingers 7.12502
rthumb -4.65179 -48.8889
lclavicle 7.87187e-014 -7.95139e-014
lhumerus -80.1459 -51.085 93.6154
lradius 68.3485
lwrist -5.8288
lhand -31.3184 33.4796
lfingers 7.12502
lthumb -4.59061 63.4099
rfemur -5.6907 18.1551 28.7952
rtibia 3.07978
rfoot -22.0496 -17.518
rtoes -1.55963
lfemur -13.4948 13.8533 -28.6628
ltibia 14.0988
lfoot -54.8372 26.6536
ltoes -55.4095
272
root 40.9444 16.0202 1.17062 -336.971 -75.9055 -366.95
lowerback 25.7824 9.42382 14.6191
upperback -17.2125 18.0356 -10.5393
thorax -35.1485 -3.62067 -39.208
lowerneck -6.43599 -8.57948 -2.49385
upperneck 37.235 -19.12 13.284
head 16.2301 -7.58248 2.92939
rclavicle -4.05521e-014 -1.90833e-014
rhumerus -83.3149 -17.0547 -81.8399
rradius 54.1416
rwrist -10.3313
rhand -31.9891 -21.5464
rfingers 7.12502
rthumb -5.23824 -51.4617
lclavicle -4.05521e-014 -1.90833e-014
lhumerus -79.6214 -49.9771 93.4114
lradius 67.711
lwrist -5.02087
lhand -31.3251 33.5721
lfingers 7.12502
lthumb -4.59708 63.5022
rfemur -6.06371 18.0397 29.0951
rtibia 3.44759
rfoot -20.5195 -16.0542
rtoes -1.28803
lfemur -13.277 11.5396 -27.6978
ltibia 15.246
lfoot -53.7693 24.418
ltoes -53.5035
273
root 40.9062 16.023 1.12494 -334.987 -77.8861 -369.172
lowerback 26.2489 9.21713 14.5315
upperback -17.1355 17.8319 -10.2033
thorax -36.0799 -4.03606 -38.9246
lowerneck -6.28415 -8.3307 -2.46863
upperneck 37.5803 -18.775 13.0034
head 16.2784 -7.48785 2.87898
rclavicle 9.62118e-014 -4.13472e-014
rhumerus -84.5575 -16.6568 -81.3291
rradius 53.1196
rwrist -10.3836
rhand -32.7085 -23.9425
rfingers 7.12502
rthumb -5.93283 -53.8394
lclavicle 9.62118e-014 -4.13472e-014
lhumerus -79.2944 -48.7513 93.3937
lradius 67.1726
lwrist -4.05588
lhand -31.6827 35.024
lfingers 7.12502
lthumb -4.94235 64.9463
rfemur -6.2317 17.6568 29.3299
rtibia 3.72487
rfoot -18.3733 -14.7221
rtoes -2.43249
lfemur -12.9335 9.10456 -26.8505
ltibia 16.4914
lfoot -51.1518 21.5129
ltoes -50.541
274
root 40.8609 16.0259 1.08839 -333.027 -79.888 -371.308
lowerback 26.6196 9.09294 14.2453
upperback -17.0677 17.603 -9.94103
thorax -36.9609 -4.36575 -38.5049
lowerneck -6.32508 -8.2722 -2.26646
upperneck 38.1144 -18.6267 12.265
head 16.4058 -7.48292 2.55571
rclavicle 1.95604e-013 0
rhumerus -85.7358 -16.2212 -80.9112
rradius 52.145
rwrist -10.4817
rhand -32.683 -23.6044
rfingers 7.12502
rthumb -5.9082 -53.502
lclavicle 1.95604e-013 0
lhumerus -79.0572 -47.4592 93.4925
lradius 66.6301
lwrist -3.1533
lhand -31.9931 35.9562
lfingers 7.12502
lthumb -5.24204 65.8714
rfemur -6.34711 17.1635 29.3375
rtibia 3.83422
rfoot -16.6439 -12.943
rtoes -5.07201
lfemur -13.0563 6.32215 -26.3446
ltibia 18.6031
lfoot -47.3226 17.6712
ltoes -48.0451
275
root 40.8087 16.0272 1.06003 -330.569 -81.8154 -373.782
lowerback 26.7258 9.03128 13.8347
upperback -17.0799 17.3346 -9.73906
thorax -37.6991 -4.56443 -37.8643
lowerneck -6.33431 -8.15144 -2.03789
upperneck 38.636 -18.3521 11.4855
head 16.496 -7.42763 2.23332
rclavicle -1.08139e-013 1.24042e-013
rhumerus -86.7559 -15.7013 -80.5186
rradius 51.2345
rwrist -10.8871
rhand -32.3434 -22.1946
rfingers 7.12502
rthumb -5.58028 -52.1011
lclavicle -1.08139e-013 1.24042e-013
lhumerus -78.9971 -46.1215 93.8071
lradius 66.1296
lwrist -2.37166
lhand -32.2729 34.9163
lfingers 7.12502
lthumb -5.51221 64.8246
rfemur -6.68643 16.5391 29.1533
rtibia 4.10817
rfoot -14.9994 -11.1934
rtoes -5.82943
lfemur -14.0162 3.56286 -26.1171
ltibia 21.9701
lfoot -43.2254 12.9079
ltoes -46.3757
276
root 40.7495 16.0449 1.03316 -327.05 -83.6178 -377.597
lowerback 27.1351 8.90229 13.4486
upperback -16.972 17.0416 -9.45168
thorax -38.567 -4.79892 -37.1844
lowerneck -6.20036 -7.95691 -1.9644
upperneck 38.9254 -17.9723 10.9763
head 16.4786 -7.33659 2.07569
rclavicle -6.36111e-014 6.36111e-015
rhumerus -87.6412 -15.1599 -79.8617
rradius 50.1367
rwrist -11.1998
rhand -32.004 -21.0768
rfingers 7.12502
rthumb -5.25256 -50.9917
lclavicle -6.36111e-014 6.36111e-015
lhumerus -79.2829 -44.8858 94.4713
lradius 65.667
lwrist -1.64478
lhand -32.3344 36.1813
lfingers 7.12502
lthumb -5.5716 66.088
rfemur -6.64494 15.8289 29.1284
rtibia 4.43221
rfoot -13.3634 -9.85244
rtoes -7.66749
lfemur -14.9452 1.95487 -25.983
ltibia 25.4402
lfoot -38.7415 7.77134
ltoes -49.279
277
root 40.6901 16.0608 1.00769 -321.182 -85.2744 -383.632
lowerback 27.4167 8.77806 13.0217
upperback -16.9048 16.7087 -9.17896
thorax -39.4173 -4.99893 -36.4053
lowerneck -6.07188 -7.69554 -2.0468
upperneck 39.1574 -17.5329 10.685
head 16.4808 -7.21875 2.04649
rclavicle -2.36156e-013 1.08139e-013
rhumerus -88.4169 -14.5252 -79.3993
rradius 48.9814
rwrist -10.8465
rhand -32.1094 -21.0621
rfingers 7.12502
rthumb -5.3544 -50.9745
lclavicle -2.36156e-013 1.08139e-013
lhumerus -79.7396 -43.7229 95.3257
lradius 65.1512
lwrist -1.19096
lhand -32.2504 34.4941
lfingers 7.12502
lthumb -5.49052 64.4029
rfemur -6.6146 15.3308 29.1641
rtibia 4.65282
rfoot -12.0316 -8.80261
rtoes -9.59982
lfemur -15.2627 -0.506915 -26.093
ltibia 26.7665
lfoot -36.0401 4.89795
ltoes -49.0577
278
root 40.6305 16.0781 0.98933 -310.753 -86.84 -394.183
lowerback 27.6296 8.66328 12.5294
upperback -16.8501 16.3334 -8.92161
thorax -40.2404 -5.14929 -35.5148
lowerneck -5.94716 -7.35034 -2.24042
upperneck 39.3848 -16.9931 10.5282
head 16.5045 -7.05856 2.11099
rclavicle 1.33583e-013 -9.54166e-014
rhumerus -88.9768 -13.7451 -79.0805
rradius 47.8736
rwrist -10.7511
rhand -31.9407 -21.1157
rfingers 7.12502
rthumb -5.19145 -51.0321
lclavicle 1.33583e-013 -9.54166e-014
lhumerus -80.2158 -42.5034 96.1847
lradius 64.4944
lwrist -1.28322
lhand -31.6023 29.5707
lfingers 7.12502
lthumb -4.86475 59.4948
rfemur -6.48349 15.1669 29.0862
rtibia 4.69267
rfoot -10.7684 -8.21042
rtoes -11.6504
lfemur -15.8903 -2.88064 -26.4444
ltibia 28.1738
lfoot -34.742 2.63481
ltoes -47.134
279
root 40.5718 16.1 0.976402 -285.333 -88.0251 -419.633
lowerback 27.7945 8.55439 12.0989
upperback -16.8346 16.0085 -8.6499
thorax -41.086 -5.30548 -34.6813
lowerneck -5.8428 -7.06572 -2.36462
upperneck 39.6711 -16.4854 10.1637
head 16.5305 -6.9233 2.06628
rclavicle 4.53229e-014 7.63333e-014
rhumerus -89.2436 -13.0101 -78.7382
rradius 46.4414
rwrist -10.7847
rhand -31.4061 -20.5126
rfingers 7.12502
rthumb -4.6753 -50.441
lclavicle 4.53229e-014 7.63333e-014
lhumerus -80.9399 -41.377 97.1705
lradius 63.7708
lwrist -1.79725
lhand -31.3666 28.7354
lfingers 7.12502
lthumb -4.63712 58.6647
rfemur -6.33738 15.3078 29.0099
rtibia 4.54163
rfoot -9.79444 -7.91361
rtoes -13.4401
lfemur -16.5845 -6.14745 -26.7717
ltibia 29.3811
lfoot -33.4584 0.0228672
ltoes -48.9485
280
root 40.5117 16.1268 0.964339 -237.969 -88.1309 -466.91
lowerback 27.9254 8.49588 11.72
upperback -16.874 15.8134 -8.34028
thorax -41.9207 -5.404 -33.8666
lowerneck -5.79224 -6.85594 -2.52508
upperneck 39.9494 -16.0285 9.68503
head 16.5596 -6.82302 1.96499
rclavicle 3.18055e-015 -3.18055e-015
rhumerus -89.4328 -12.3319 -77.663
rradius 44.9033
rwrist -8.84802
rhand -32.9342 -26.8605
rfingers 7.12502
rthumb -6.15069 -56.7512
lclavicle 3.18055e-015 -3.18055e-015
lhumerus -81.8191 -40.4083 98.303
lradius 63.0376
lwrist -2.36369
lhand -30.7284 28.3999
lfingers 7.12502
lthumb -4.02089 58.3417
rfemur -6.18655 15.7773 29.1019
rtibia 4.14337
rfoot -9.19838 -7.80545
rtoes -16.4135
lfemur -17.9524 -8.6166 -26.9126
ltibia 30.1715
lfoot -32.2023 -1.64894
ltoes -46.1051
